Coordinates
version=1
nRows=27
nColumns=38
inDegrees=no

Units are S.I. units (second, meters, Newtons, ...)
If the header above contains a line with 'inDegrees', this indicates whether rotational values are in degrees (yes) or radians (no).

endheader
time	pelvis_tilt	pelvis_list	pelvis_rotation	pelvis_tx	pelvis_ty	pelvis_tz	hip_flexion_r	hip_adduction_r	hip_rotation_r	knee_angle_r	ankle_angle_r	subtalar_angle_r	mtp_angle_r	hip_flexion_l	hip_adduction_l	hip_rotation_l	knee_angle_l	ankle_angle_l	subtalar_angle_l	mtp_angle_l	lumbar_extension	lumbar_bending	lumbar_rotation	arm_flex_r	arm_add_r	arm_rot_r	elbow_flex_r	pro_sup_r	wrist_flex_r	wrist_dev_r	arm_flex_l	arm_add_l	arm_rot_l	elbow_flex_l	pro_sup_l	wrist_flex_l	wrist_dev_l
4.91	3.09006	1.40242	-1.52755	0.745599	1.11863	0.949592	-0.30575	0.0784156	-0.193941	0.054086	0.0150328	0	0	0.240272	-0.154469	-0.308756	0.582087	-0.0284133	0	0	-0.361648	-0.0212779	0.132042	0.26479	-0.303935	0.242354	1.87945	1.5708	0	0	0.217432	-0.265099	-0.291879	1.84722	0.811457	0	0
4.92	3.092	1.40304	-1.53113	0.745422	1.12386	0.949041	-0.312729	0.0774633	-0.191533	0.0518667	0.0177256	0	0	0.241747	-0.147485	-0.311768	0.542513	-0.027348	0	0	-0.362171	-0.0221581	0.132536	0.267875	-0.303415	0.24313	1.8793	1.5708	0	0	0.219054	-0.265676	-0.293344	1.84902	0.811388	0	0
4.93	3.09334	1.40384	-1.53356	0.745186	1.12921	0.948396	-0.319616	0.0767372	-0.190026	0.0496993	0.0215468	0	0	0.242457	-0.140325	-0.314517	0.502115	-0.027446	0	0	-0.362044	-0.022825	0.132366	0.270482	-0.302807	0.243662	1.87891	1.5708	0	0	0.220165	-0.266287	-0.294694	1.85043	0.81119	0	0
4.94	3.09684	1.40499	-1.53751	0.744816	1.13455	0.947682	-0.325473	0.0753884	-0.18969	0.0488512	0.0260394	0	0	0.243058	-0.131769	-0.314531	0.461961	-0.0242493	0	0	-0.361561	-0.0236873	0.131307	0.272863	-0.302234	0.243911	1.87847	1.5708	0	0	0.221083	-0.26686	-0.295965	1.85171	0.810907	0	0
4.95	3.10136	1.4064	-1.54158	0.744311	1.13991	0.94689	-0.331201	0.0739686	-0.18971	0.0477913	0.0306784	0	0	0.243092	-0.122189	-0.312451	0.421395	-0.0215673	0	0	-0.360605	-0.024482	0.129252	0.275048	-0.301495	0.244103	1.87819	1.5708	0	0	0.221745	-0.267455	-0.296953	1.85292	0.809945	0	0
4.96	3.10101	1.40854	-1.54019	0.743744	1.14534	0.945955	-0.335544	0.0733658	-0.190963	0.0478683	0.0354814	0	0	0.2439	-0.113606	-0.310014	0.382135	-0.0192855	0	0	-0.358473	-0.0242718	0.126757	0.277105	-0.300901	0.244419	1.87763	1.5708	0	0	0.222235	-0.267846	-0.298356	1.85461	0.809094	0	0
4.97	3.09729	1.41073	-1.53519	0.743131	1.1508	0.944955	-0.339432	0.0733391	-0.19288	0.0488298	0.0404685	0	0	0.244021	-0.105661	-0.305936	0.34299	-0.0189327	0	0	-0.355986	-0.02342	0.124088	0.279401	-0.30047	0.244526	1.87694	1.5708	0	0	0.222576	-0.268202	-0.299231	1.85668	0.808214	0	0
4.98	3.09364	1.41323	-1.52989	0.742468	1.15633	0.94389	-0.342852	0.0732531	-0.194488	0.0505451	0.0465135	0	0	0.243726	-0.0976735	-0.300611	0.304171	-0.0202717	0	0	-0.352942	-0.0225863	0.120922	0.28191	-0.299902	0.244406	1.87605	1.5708	0	0	0.222822	-0.268685	-0.300472	1.85962	0.808083	0	0
4.99	3.09049	1.41558	-1.52497	0.741741	1.16188	0.94277	-0.345752	0.0728575	-0.197305	0.053688	0.0533488	0	0	0.242319	-0.0891417	-0.293486	0.26563	-0.0223496	0	0	-0.349976	-0.0218628	0.117558	0.284247	-0.299167	0.243708	1.87546	1.5708	0	0	0.223284	-0.269178	-0.301072	1.86288	0.808635	0	0
5	3.08631	1.41758	-1.51905	0.740984	1.16746	0.941651	-0.348497	0.0723861	-0.200913	0.0577458	0.0604182	0	0	0.240207	-0.0809526	-0.28632	0.228794	-0.0255169	0	0	-0.347373	-0.0210659	0.114247	0.286614	-0.298934	0.243039	1.8751	1.5708	0	0	0.223888	-0.269524	-0.301218	1.86612	0.809385	0	0
5.01	3.08133	1.41937	-1.51246	0.740207	1.17306	0.940561	-0.350919	0.0718697	-0.205216	0.0628106	0.0676275	0	0	0.237864	-0.0732271	-0.28053	0.194279	-0.0307578	0	0	-0.344867	-0.0202443	0.111132	0.288848	-0.298997	0.24206	1.87441	1.5708	0	0	0.224725	-0.2697	-0.30137	1.86948	0.81013	0	0
5.02	3.07965	1.42024	-1.50954	0.739458	1.1788	0.939561	-0.354794	0.0707338	-0.209011	0.0674013	0.0744001	0	0	0.233935	-0.0657023	-0.277268	0.16218	-0.0377476	0	0	-0.342965	-0.0201416	0.108368	0.290552	-0.298889	0.240319	1.87381	1.5708	0	0	0.225724	-0.27004	-0.301203	1.87279	0.810249	0	0
5.03	3.07685	1.42034	-1.50611	0.738708	1.18468	0.938607	-0.359763	0.0695456	-0.212028	0.0715755	0.080829	0	0	0.228713	-0.0589203	-0.275542	0.133054	-0.0444703	0	0	-0.341553	-0.0200203	0.106319	0.291559	-0.298782	0.237413	1.87344	1.5708	0	0	0.226591	-0.270271	-0.300157	1.87612	0.80924	0	0
5.04	3.07253	1.41973	-1.50181	0.737969	1.19068	0.937682	-0.365616	0.0685081	-0.214754	0.075647	0.087016	0	0	0.222345	-0.0527413	-0.273898	0.106996	-0.0501858	0	0	-0.340646	-0.0198059	0.105203	0.291994	-0.299213	0.233508	1.87379	1.5708	0	0	0.227498	-0.27027	-0.297811	1.87918	0.807154	0	0
5.05	3.06392	1.41889	-1.49353	0.737292	1.19677	0.936712	-0.371469	0.0680945	-0.217522	0.0803089	0.0931403	0	0	0.216391	-0.0478727	-0.271589	0.0857148	-0.0540488	0	0	-0.339705	-0.019143	0.10474	0.291652	-0.299788	0.228732	1.87508	1.5708	0	0	0.228566	-0.269925	-0.295646	1.88301	0.805335	0	0
5.06	3.05548	1.41718	-1.48609	0.736698	1.20299	0.935808	-0.37787	0.0674824	-0.220571	0.0859019	0.0993248	0	0	0.210008	-0.0439755	-0.268905	0.0696321	-0.0557516	0	0	-0.339462	-0.0186681	0.105191	0.290903	-0.300913	0.224326	1.87724	1.5708	0	0	0.229593	-0.269662	-0.293366	1.88732	0.804573	0	0
5.07	3.04643	1.41545	-1.4785	0.736132	1.20929	0.9349	-0.383852	0.0666872	-0.223201	0.0923054	0.105355	0	0	0.20543	-0.0412922	-0.267444	0.0610317	-0.0540899	0	0	-0.339049	-0.0182357	0.10614	0.289771	-0.302163	0.220463	1.87955	1.5708	0	0	0.23005	-0.269432	-0.290781	1.89125	0.804536	0	0
5.08	3.03606	1.41372	-1.4699	0.735555	1.21571	0.933984	-0.389473	0.0658409	-0.225373	0.0993287	0.111004	0	0	0.202411	-0.0398114	-0.266716	0.0592606	-0.0504715	0	0	-0.338274	-0.0176259	0.107458	0.288154	-0.303567	0.217217	1.88116	1.5708	0	0	0.229643	-0.268733	-0.288873	1.89441	0.804649	0	0
5.09	3.02256	1.41158	-1.45876	0.734982	1.22223	0.933082	-0.394364	0.0649634	-0.228246	0.108516	0.116938	0	0	0.200109	-0.039917	-0.265981	0.0635763	-0.0463653	0	0	-0.33758	-0.0165025	0.109646	0.285937	-0.305408	0.214534	1.88289	1.5708	0	0	0.228347	-0.267636	-0.286943	1.89675	0.804867	0	0
5.1	3.00594	1.40935	-1.44529	0.734468	1.22889	0.932166	-0.398534	0.0641927	-0.231441	0.119259	0.122966	0	0	0.198864	-0.0418793	-0.264896	0.0741389	-0.0422293	0	0	-0.336457	-0.0150163	0.112861	0.283004	-0.307653	0.212521	1.88495	1.5708	0	0	0.225808	-0.266274	-0.285695	1.89929	0.804982	0	0
5.11	2.99266	1.40747	-1.43558	0.733927	1.23569	0.931249	-0.401809	0.0623828	-0.234601	0.131274	0.129559	0	0	0.199214	-0.0437967	-0.265711	0.0900054	-0.0403214	0	0	-0.334602	-0.0140833	0.116409	0.279395	-0.309864	0.211128	1.88708	1.5708	0	0	0.222138	-0.264709	-0.285337	1.90179	0.804911	0	0
5.12	2.98289	1.40588	-1.42971	0.733306	1.2426	0.9303	-0.40412	0.059335	-0.237664	0.144768	0.136799	0	0	0.19959	-0.0450246	-0.264921	0.107474	-0.0397182	0	0	-0.332157	-0.0136902	0.12015	0.275376	-0.312102	0.210299	1.88958	1.5708	0	0	0.217945	-0.262976	-0.285499	1.90406	0.804783	0	0
5.13	2.97688	1.40446	-1.42817	0.732598	1.24963	0.929329	-0.40544	0.0549144	-0.241006	0.160135	0.144479	0	0	0.198773	-0.044985	-0.262229	0.123075	-0.0395143	0	0	-0.329235	-0.0139963	0.124361	0.270793	-0.314353	0.209718	1.89211	1.5708	0	0	0.213554	-0.261035	-0.285707	1.90615	0.804716	0	0
5.14	2.97737	1.40298	-1.43334	0.731826	1.25675	0.928401	-0.406241	0.0489691	-0.245053	0.177111	0.152033	0	0	0.196123	-0.0429547	-0.257725	0.134723	-0.0412368	0	0	-0.326323	-0.0153912	0.128447	0.266084	-0.316091	0.209309	1.89401	1.5708	0	0	0.209116	-0.259151	-0.286525	1.90855	0.804899	0	0
5.15	2.98401	1.40122	-1.44486	0.730973	1.26395	0.927578	-0.407027	0.0416248	-0.248853	0.195035	0.159059	0	0	0.191426	-0.0390897	-0.252597	0.141389	-0.0493137	0	0	-0.323681	-0.017763	0.132381	0.261406	-0.31723	0.20861	1.89539	1.5708	0	0	0.204941	-0.257309	-0.287525	1.91041	0.805238	0	0
5.16	2.99422	1.39877	-1.45961	0.730053	1.27123	0.926867	-0.408667	0.0336879	-0.252303	0.212858	0.165782	0	0	0.184907	-0.0345423	-0.249511	0.144083	-0.069769	0	0	-0.321655	-0.0206993	0.135894	0.256841	-0.317663	0.207571	1.89684	1.5708	0	0	0.2013	-0.255742	-0.288584	1.91195	0.805591	0	0
5.17	3.00563	1.39566	-1.47514	0.729111	1.27861	0.926208	-0.411057	0.0257461	-0.255116	0.23087	0.171672	0	0	0.177874	-0.0308127	-0.252591	0.145766	-0.1059	0	0	-0.320084	-0.0238083	0.139008	0.252517	-0.317861	0.206838	1.89867	1.5708	0	0	0.197998	-0.254522	-0.289827	1.91343	0.805792	0	0
